<svg width="168" height="168" viewBox="0 0 168 168" fill="none" xmlns="http://www.w3.org/2000/svg">
<rect width="84.6282" height="84.6282" rx="20" fill="#5EB2E1"/>
<rect x="8.61482" y="9.12159" width="67.3985" height="67.3985" rx="13" fill="#A8FF80"/>
<circle cx="42.3141" cy="41.8073" r="25.5912" fill="#5EB2E1"/>
<rect x="29.2169" y="28.7132" width="26.1944" height="26.1944" rx="4" fill="#A8FF80"/>
<rect y="83.3718" width="84.6282" height="84.6282" rx="20" fill="#5EB2E1"/>
<rect x="8.61482" y="92.4934" width="67.3985" height="67.3985" rx="13" fill="#A8FF80"/>
<circle cx="42.3141" cy="125.179" r="25.5912" fill="#5EB2E1"/>
<rect x="29.2169" y="112.085" width="26.1944" height="26.1944" rx="4" fill="#A8FF80"/>
<rect x="83.3718" width="84.6282" height="84.6282" rx="20" fill="#5EB2E1"/>
<rect x="91.9867" y="9.12159" width="67.3985" height="67.3985" rx="13" fill="#A8FF80"/>
<circle cx="125.686" cy="41.8073" r="25.5912" fill="#5EB2E1"/>
<rect x="112.589" y="28.7132" width="26.1944" height="26.1944" rx="4" fill="#A8FF80"/>
<rect x="83.3718" y="83.3718" width="84.6282" height="84.6282" rx="20" fill="#5EB2E1"/>
<rect x="91.9867" y="92.4934" width="67.3985" height="67.3985" rx="13" fill="#A8FF80"/>
<circle cx="125.686" cy="125.179" r="25.5912" fill="#5EB2E1"/>
<rect x="112.589" y="112.085" width="26.1944" height="26.1944" rx="4" fill="#A8FF80"/>
</svg>
