<svg width="168" height="168" viewBox="0 0 168 168" fill="none" xmlns="http://www.w3.org/2000/svg">
<circle cx="42.1254" cy="42.1254" r="42.1254" fill="#5EB2E1"/>
<circle cx="42.1254" cy="42.1254" r="35.1045" fill="#A8FF80"/>
<circle cx="41.8746" cy="41.8746" r="23.8209" fill="#5EB2E1"/>
<circle cx="42.3761" cy="41.8746" r="13.2896" fill="#A8FF80"/>
<circle cx="125.875" cy="125.875" r="42.1254" fill="#5EB2E1"/>
<circle cx="125.875" cy="125.875" r="35.1045" fill="#A8FF80"/>
<circle cx="125.624" cy="125.624" r="23.8209" fill="#5EB2E1"/>
<circle cx="126.125" cy="125.624" r="13.2896" fill="#A8FF80"/>
<rect x="83.7493" width="84.2507" height="84.2507" rx="20" fill="#5EB2E1"/>
<rect x="92.3257" y="9.08092" width="67.0979" height="67.0979" rx="13" fill="#A8FF80"/>
<circle cx="125.875" cy="41.6209" r="25.477" fill="#5EB2E1"/>
<rect x="112.836" y="28.5851" width="26.0776" height="26.0776" rx="4" fill="#A8FF80"/>
<rect y="83.7493" width="84.2507" height="84.2507" rx="20" fill="#5EB2E1"/>
<rect x="8.57642" y="92.8302" width="67.0979" height="67.0979" rx="13" fill="#A8FF80"/>
<circle cx="42.1254" cy="125.37" r="25.477" fill="#5EB2E1"/>
<rect x="29.0866" y="112.334" width="26.0776" height="26.0776" rx="4" fill="#A8FF80"/>
</svg>
